<svg width="36" height="32" viewBox="0 0 36 32" fill="none" xmlns="http://www.w3.org/2000/svg">
<g clip-path="url(#clip0_104_2)">
<path fill-rule="evenodd" clip-rule="evenodd" d="M35.4162 18.0839L28.4558 30.0161C27.6985 31.3143 26.3229 32.0276 24.92 32.0006L24.8931 32.0007H11.0766C10.9198 32.0035 10.7634 31.9971 10.6082 31.9816C10.03 31.9253 9.48782 31.7459 9.00826 31.4699C8.52687 31.194 8.09762 30.8149 7.75713 30.342C7.66659 30.2168 7.58312 30.0861 7.50731 29.9506L0.585107 18.084C0.499305 17.943 0.422561 17.7973 0.355127 17.6477C0.114636 17.1171 -0.000516432 16.5558 1.74084e-06 16.0007C-0.000516462 15.4454 0.11465 14.8842 0.355169 14.3535C0.42259 14.204 0.499318 14.0583 0.585099 13.9174L7.50732 2.05069C7.58348 1.91454 7.66737 1.7833 7.7584 1.65756C8.09878 1.18538 8.5277 0.806715 9.00864 0.531174C9.48795 0.255385 10.0298 0.0760622 10.6077 0.0197118C10.7631 0.00424029 10.9197 -0.00218524 11.0766 0.000652951H24.8931L24.9199 0.000741165C26.3229 -0.0262902 27.6985 0.687029 28.4558 1.98517L35.4162 13.9174C35.5019 14.0582 35.5786 14.2038 35.646 14.3532C35.8866 14.8839 36.0018 15.4453 36.0013 16.0007C36.0018 16.556 35.8866 17.1173 35.646 17.648C35.5786 17.7975 35.5019 17.9431 35.4162 18.0839ZM18 4.5C18.8284 4.5 19.5 5.17157 19.5 6V26C19.5 26.8284 18.8284 27.5 18 27.5C17.1716 27.5 16.5 26.8284 16.5 26V6C16.5 5.17157 17.1716 4.5 18 4.5ZM11.5 10C11.5 9.17157 10.8284 8.5 10 8.5C9.17157 8.5 8.5 9.17157 8.5 10V22C8.5 22.8284 9.17157 23.5 10 23.5C10.8284 23.5 11.5 22.8284 11.5 22V10ZM27.5 10C27.5 9.17157 26.8284 8.5 26 8.5C25.1716 8.5 24.5 9.17157 24.5 10V22C24.5 22.8284 25.1716 23.5 26 23.5C26.8284 23.5 27.5 22.8284 27.5 22V10Z" fill="#6922c7"/>
</g>
<defs>
<clipPath id="clip0_104_2">
<rect width="36" height="32" fill="white"/>
</clipPath>
</defs>
</svg>
